<mxfile host="app.diagrams.net" agent="Mozilla/5.0 (Windows NT 10.0; Win64; x64) AppleWebKit/537.36 (KHTML, like Gecko) Chrome/138.0.0.0 Safari/537.36" version="28.0.7">
  <diagram name="Page-1" id="B924BRrkHSrLz1p9w_8I">
    <mxGraphModel dx="786" dy="417" grid="1" gridSize="10" guides="1" tooltips="1" connect="1" arrows="1" fold="1" page="1" pageScale="1" pageWidth="850" pageHeight="1100" math="0" shadow="0">
      <root>
        <mxCell id="0" />
        <mxCell id="1" parent="0" />
        <mxCell id="Lcug2EW6NAiBo1yh3UbG-1" value="entering" style="rounded=1;whiteSpace=wrap;html=1;" vertex="1" parent="1">
          <mxGeometry x="160" y="50" width="110" height="40" as="geometry" />
        </mxCell>
        <mxCell id="Lcug2EW6NAiBo1yh3UbG-2" value="waiting" style="rounded=1;whiteSpace=wrap;html=1;" vertex="1" parent="1">
          <mxGeometry x="160" y="330" width="110" height="40" as="geometry" />
        </mxCell>
        <mxCell id="Lcug2EW6NAiBo1yh3UbG-3" value="changing clothes" style="rounded=1;whiteSpace=wrap;html=1;" vertex="1" parent="1">
          <mxGeometry x="160" y="270" width="110" height="40" as="geometry" />
        </mxCell>
        <mxCell id="Lcug2EW6NAiBo1yh3UbG-4" value="watching match" style="rounded=1;whiteSpace=wrap;html=1;" vertex="1" parent="1">
          <mxGeometry x="160" y="214" width="110" height="40" as="geometry" />
        </mxCell>
        <mxCell id="Lcug2EW6NAiBo1yh3UbG-5" value="purchase ticket" style="rounded=1;whiteSpace=wrap;html=1;" vertex="1" parent="1">
          <mxGeometry x="160" y="160" width="110" height="40" as="geometry" />
        </mxCell>
        <mxCell id="Lcug2EW6NAiBo1yh3UbG-6" value="holding vehicles" style="rounded=1;whiteSpace=wrap;html=1;" vertex="1" parent="1">
          <mxGeometry x="160" y="110" width="110" height="40" as="geometry" />
        </mxCell>
        <mxCell id="Lcug2EW6NAiBo1yh3UbG-7" value="purchasing products" style="rounded=1;whiteSpace=wrap;html=1;" vertex="1" parent="1">
          <mxGeometry x="160" y="380" width="110" height="40" as="geometry" />
        </mxCell>
        <mxCell id="Lcug2EW6NAiBo1yh3UbG-11" value="operation of stadium activities" style="rounded=1;whiteSpace=wrap;html=1;" vertex="1" parent="1">
          <mxGeometry x="160" y="440" width="110" height="40" as="geometry" />
        </mxCell>
        <mxCell id="Lcug2EW6NAiBo1yh3UbG-12" value="playing team" style="rounded=1;whiteSpace=wrap;html=1;" vertex="1" parent="1">
          <mxGeometry x="160" y="490" width="110" height="40" as="geometry" />
        </mxCell>
        <mxCell id="Lcug2EW6NAiBo1yh3UbG-13" value="Filming" style="rounded=1;whiteSpace=wrap;html=1;" vertex="1" parent="1">
          <mxGeometry x="160" y="544" width="110" height="40" as="geometry" />
        </mxCell>
        <mxCell id="Lcug2EW6NAiBo1yh3UbG-14" value="security guiders" style="rounded=1;whiteSpace=wrap;html=1;" vertex="1" parent="1">
          <mxGeometry x="160" y="596" width="110" height="40" as="geometry" />
        </mxCell>
        <mxCell id="Lcug2EW6NAiBo1yh3UbG-15" value="advertiment" style="rounded=1;whiteSpace=wrap;html=1;" vertex="1" parent="1">
          <mxGeometry x="160" y="648" width="110" height="40" as="geometry" />
        </mxCell>
        <mxCell id="Lcug2EW6NAiBo1yh3UbG-16" value="live stream" style="rounded=1;whiteSpace=wrap;html=1;" vertex="1" parent="1">
          <mxGeometry x="160" y="700" width="110" height="40" as="geometry" />
        </mxCell>
        <mxCell id="Lcug2EW6NAiBo1yh3UbG-17" value="leave outside" style="rounded=1;whiteSpace=wrap;html=1;" vertex="1" parent="1">
          <mxGeometry x="160" y="750" width="110" height="40" as="geometry" />
        </mxCell>
        <mxCell id="Lcug2EW6NAiBo1yh3UbG-18" value="entrance" style="rounded=1;whiteSpace=wrap;html=1;" vertex="1" parent="1">
          <mxGeometry x="450" y="48" width="110" height="40" as="geometry" />
        </mxCell>
        <mxCell id="Lcug2EW6NAiBo1yh3UbG-19" value="dressing rooms" style="rounded=1;whiteSpace=wrap;html=1;" vertex="1" parent="1">
          <mxGeometry x="450" y="290" width="110" height="40" as="geometry" />
        </mxCell>
        <mxCell id="Lcug2EW6NAiBo1yh3UbG-20" value="sitting zone" style="rounded=1;whiteSpace=wrap;html=1;" vertex="1" parent="1">
          <mxGeometry x="450" y="210" width="110" height="40" as="geometry" />
        </mxCell>
        <mxCell id="Lcug2EW6NAiBo1yh3UbG-21" value="tickets sales" style="rounded=1;whiteSpace=wrap;html=1;" vertex="1" parent="1">
          <mxGeometry x="450" y="159" width="110" height="40" as="geometry" />
        </mxCell>
        <mxCell id="Lcug2EW6NAiBo1yh3UbG-22" value="parking" style="rounded=1;whiteSpace=wrap;html=1;" vertex="1" parent="1">
          <mxGeometry x="450" y="110" width="110" height="40" as="geometry" />
        </mxCell>
        <mxCell id="Lcug2EW6NAiBo1yh3UbG-23" value="score board" style="rounded=1;whiteSpace=wrap;html=1;" vertex="1" parent="1">
          <mxGeometry x="450" y="670" width="110" height="40" as="geometry" />
        </mxCell>
        <mxCell id="Lcug2EW6NAiBo1yh3UbG-24" value="sport venue" style="rounded=1;whiteSpace=wrap;html=1;" vertex="1" parent="1">
          <mxGeometry x="450" y="556" width="110" height="40" as="geometry" />
        </mxCell>
        <mxCell id="Lcug2EW6NAiBo1yh3UbG-25" value="offices" style="rounded=1;whiteSpace=wrap;html=1;" vertex="1" parent="1">
          <mxGeometry x="450" y="440" width="110" height="40" as="geometry" />
        </mxCell>
        <mxCell id="Lcug2EW6NAiBo1yh3UbG-26" value="economic zone" style="rounded=1;whiteSpace=wrap;html=1;" vertex="1" parent="1">
          <mxGeometry x="450" y="380" width="110" height="40" as="geometry" />
        </mxCell>
        <mxCell id="Lcug2EW6NAiBo1yh3UbG-27" value="exit gate" style="rounded=1;whiteSpace=wrap;html=1;" vertex="1" parent="1">
          <mxGeometry x="450" y="750" width="110" height="40" as="geometry" />
        </mxCell>
        <mxCell id="Lcug2EW6NAiBo1yh3UbG-28" value="" style="endArrow=classic;html=1;rounded=0;exitX=0;exitY=0.5;exitDx=0;exitDy=0;entryX=1;entryY=0.5;entryDx=0;entryDy=0;" edge="1" parent="1" source="Lcug2EW6NAiBo1yh3UbG-27" target="Lcug2EW6NAiBo1yh3UbG-17">
          <mxGeometry width="50" height="50" relative="1" as="geometry">
            <mxPoint x="500" y="660" as="sourcePoint" />
            <mxPoint x="550" y="610" as="targetPoint" />
          </mxGeometry>
        </mxCell>
        <mxCell id="Lcug2EW6NAiBo1yh3UbG-29" value="" style="endArrow=classic;html=1;rounded=0;exitX=0;exitY=0.75;exitDx=0;exitDy=0;entryX=1;entryY=0.5;entryDx=0;entryDy=0;" edge="1" parent="1" source="Lcug2EW6NAiBo1yh3UbG-23" target="Lcug2EW6NAiBo1yh3UbG-16">
          <mxGeometry width="50" height="50" relative="1" as="geometry">
            <mxPoint x="450" y="690" as="sourcePoint" />
            <mxPoint x="500" y="640" as="targetPoint" />
          </mxGeometry>
        </mxCell>
        <mxCell id="Lcug2EW6NAiBo1yh3UbG-30" value="" style="endArrow=classic;html=1;rounded=0;exitX=0;exitY=0.5;exitDx=0;exitDy=0;entryX=1;entryY=0.5;entryDx=0;entryDy=0;" edge="1" parent="1" source="Lcug2EW6NAiBo1yh3UbG-23" target="Lcug2EW6NAiBo1yh3UbG-15">
          <mxGeometry width="50" height="50" relative="1" as="geometry">
            <mxPoint x="360" y="680" as="sourcePoint" />
            <mxPoint x="410" y="630" as="targetPoint" />
          </mxGeometry>
        </mxCell>
        <mxCell id="Lcug2EW6NAiBo1yh3UbG-31" value="" style="endArrow=classic;html=1;rounded=0;exitX=0;exitY=0.75;exitDx=0;exitDy=0;entryX=1;entryY=0.5;entryDx=0;entryDy=0;" edge="1" parent="1" source="Lcug2EW6NAiBo1yh3UbG-24" target="Lcug2EW6NAiBo1yh3UbG-14">
          <mxGeometry width="50" height="50" relative="1" as="geometry">
            <mxPoint x="390" y="580" as="sourcePoint" />
            <mxPoint x="440" y="530" as="targetPoint" />
          </mxGeometry>
        </mxCell>
        <mxCell id="Lcug2EW6NAiBo1yh3UbG-32" value="" style="endArrow=classic;html=1;rounded=0;exitX=0;exitY=0.5;exitDx=0;exitDy=0;entryX=1;entryY=0.5;entryDx=0;entryDy=0;" edge="1" parent="1" source="Lcug2EW6NAiBo1yh3UbG-24" target="Lcug2EW6NAiBo1yh3UbG-13">
          <mxGeometry width="50" height="50" relative="1" as="geometry">
            <mxPoint x="310" y="560" as="sourcePoint" />
            <mxPoint x="360" y="510" as="targetPoint" />
          </mxGeometry>
        </mxCell>
        <mxCell id="Lcug2EW6NAiBo1yh3UbG-33" value="" style="endArrow=classic;html=1;rounded=0;exitX=0;exitY=0.25;exitDx=0;exitDy=0;entryX=1;entryY=0.5;entryDx=0;entryDy=0;" edge="1" parent="1" source="Lcug2EW6NAiBo1yh3UbG-24" target="Lcug2EW6NAiBo1yh3UbG-12">
          <mxGeometry width="50" height="50" relative="1" as="geometry">
            <mxPoint x="360" y="540" as="sourcePoint" />
            <mxPoint x="410" y="490" as="targetPoint" />
          </mxGeometry>
        </mxCell>
        <mxCell id="Lcug2EW6NAiBo1yh3UbG-34" value="" style="endArrow=classic;html=1;rounded=0;exitX=0;exitY=0.5;exitDx=0;exitDy=0;entryX=1;entryY=0.5;entryDx=0;entryDy=0;" edge="1" parent="1" source="Lcug2EW6NAiBo1yh3UbG-25" target="Lcug2EW6NAiBo1yh3UbG-11">
          <mxGeometry width="50" height="50" relative="1" as="geometry">
            <mxPoint x="410" y="470" as="sourcePoint" />
            <mxPoint x="460" y="420" as="targetPoint" />
          </mxGeometry>
        </mxCell>
        <mxCell id="Lcug2EW6NAiBo1yh3UbG-35" value="" style="endArrow=classic;html=1;rounded=0;exitX=0;exitY=0.5;exitDx=0;exitDy=0;entryX=1;entryY=0.5;entryDx=0;entryDy=0;" edge="1" parent="1" source="Lcug2EW6NAiBo1yh3UbG-26" target="Lcug2EW6NAiBo1yh3UbG-7">
          <mxGeometry width="50" height="50" relative="1" as="geometry">
            <mxPoint x="400" y="380" as="sourcePoint" />
            <mxPoint x="450" y="330" as="targetPoint" />
          </mxGeometry>
        </mxCell>
        <mxCell id="Lcug2EW6NAiBo1yh3UbG-36" value="" style="endArrow=classic;html=1;rounded=0;exitX=0;exitY=0.75;exitDx=0;exitDy=0;entryX=1;entryY=0.5;entryDx=0;entryDy=0;" edge="1" parent="1" source="Lcug2EW6NAiBo1yh3UbG-19" target="Lcug2EW6NAiBo1yh3UbG-2">
          <mxGeometry width="50" height="50" relative="1" as="geometry">
            <mxPoint x="350" y="310" as="sourcePoint" />
            <mxPoint x="400" y="260" as="targetPoint" />
          </mxGeometry>
        </mxCell>
        <mxCell id="Lcug2EW6NAiBo1yh3UbG-37" value="" style="endArrow=classic;html=1;rounded=0;exitX=0;exitY=0.5;exitDx=0;exitDy=0;entryX=1;entryY=0.5;entryDx=0;entryDy=0;" edge="1" parent="1" source="Lcug2EW6NAiBo1yh3UbG-19" target="Lcug2EW6NAiBo1yh3UbG-3">
          <mxGeometry width="50" height="50" relative="1" as="geometry">
            <mxPoint x="350" y="290" as="sourcePoint" />
            <mxPoint x="400" y="240" as="targetPoint" />
          </mxGeometry>
        </mxCell>
        <mxCell id="Lcug2EW6NAiBo1yh3UbG-39" value="" style="endArrow=classic;html=1;rounded=0;exitX=0;exitY=0.5;exitDx=0;exitDy=0;entryX=1;entryY=0.5;entryDx=0;entryDy=0;" edge="1" parent="1" source="Lcug2EW6NAiBo1yh3UbG-18" target="Lcug2EW6NAiBo1yh3UbG-1">
          <mxGeometry width="50" height="50" relative="1" as="geometry">
            <mxPoint x="320" y="50" as="sourcePoint" />
            <mxPoint x="370" as="targetPoint" />
          </mxGeometry>
        </mxCell>
        <mxCell id="Lcug2EW6NAiBo1yh3UbG-40" value="" style="endArrow=classic;html=1;rounded=0;exitX=0;exitY=0.5;exitDx=0;exitDy=0;entryX=1;entryY=0.5;entryDx=0;entryDy=0;" edge="1" parent="1" source="Lcug2EW6NAiBo1yh3UbG-22" target="Lcug2EW6NAiBo1yh3UbG-6">
          <mxGeometry width="50" height="50" relative="1" as="geometry">
            <mxPoint x="320" y="130" as="sourcePoint" />
            <mxPoint x="370" y="80" as="targetPoint" />
          </mxGeometry>
        </mxCell>
        <mxCell id="Lcug2EW6NAiBo1yh3UbG-41" value="" style="endArrow=classic;html=1;rounded=0;exitX=0;exitY=0.5;exitDx=0;exitDy=0;entryX=1;entryY=0.5;entryDx=0;entryDy=0;" edge="1" parent="1" source="Lcug2EW6NAiBo1yh3UbG-21" target="Lcug2EW6NAiBo1yh3UbG-5">
          <mxGeometry width="50" height="50" relative="1" as="geometry">
            <mxPoint x="310" y="220" as="sourcePoint" />
            <mxPoint x="360" y="170" as="targetPoint" />
          </mxGeometry>
        </mxCell>
        <mxCell id="Lcug2EW6NAiBo1yh3UbG-42" value="" style="endArrow=classic;html=1;rounded=0;exitX=0;exitY=0.5;exitDx=0;exitDy=0;" edge="1" parent="1" source="Lcug2EW6NAiBo1yh3UbG-20">
          <mxGeometry width="50" height="50" relative="1" as="geometry">
            <mxPoint x="340" y="260" as="sourcePoint" />
            <mxPoint x="270" y="230" as="targetPoint" />
          </mxGeometry>
        </mxCell>
        <mxCell id="Lcug2EW6NAiBo1yh3UbG-44" value="" style="endArrow=none;html=1;rounded=0;" edge="1" parent="1">
          <mxGeometry width="50" height="50" relative="1" as="geometry">
            <mxPoint x="130" y="770" as="sourcePoint" />
            <mxPoint x="160" y="770" as="targetPoint" />
          </mxGeometry>
        </mxCell>
        <mxCell id="Lcug2EW6NAiBo1yh3UbG-45" value="" style="endArrow=none;html=1;rounded=0;" edge="1" parent="1">
          <mxGeometry width="50" height="50" relative="1" as="geometry">
            <mxPoint x="130" y="770" as="sourcePoint" />
            <mxPoint x="130" y="420" as="targetPoint" />
          </mxGeometry>
        </mxCell>
        <mxCell id="Lcug2EW6NAiBo1yh3UbG-46" value="" style="endArrow=none;html=1;rounded=0;" edge="1" parent="1">
          <mxGeometry width="50" height="50" relative="1" as="geometry">
            <mxPoint x="130" y="420" as="sourcePoint" />
            <mxPoint x="130" y="130" as="targetPoint" />
          </mxGeometry>
        </mxCell>
        <mxCell id="Lcug2EW6NAiBo1yh3UbG-52" value="" style="endArrow=none;html=1;rounded=0;" edge="1" parent="1">
          <mxGeometry width="50" height="50" relative="1" as="geometry">
            <mxPoint x="130" y="130" as="sourcePoint" />
            <mxPoint x="130" y="70" as="targetPoint" />
          </mxGeometry>
        </mxCell>
        <mxCell id="Lcug2EW6NAiBo1yh3UbG-54" value="" style="endArrow=classic;html=1;rounded=0;entryX=0;entryY=0.5;entryDx=0;entryDy=0;" edge="1" parent="1" target="Lcug2EW6NAiBo1yh3UbG-1">
          <mxGeometry width="50" height="50" relative="1" as="geometry">
            <mxPoint x="130" y="70" as="sourcePoint" />
            <mxPoint x="70" y="30" as="targetPoint" />
          </mxGeometry>
        </mxCell>
      </root>
    </mxGraphModel>
  </diagram>
</mxfile>
